# xmcd CD database file generated by LOLA_Freedb v0.9beta0
# 
# Track frame offsets:
#      150
#      13985
#      33823
#      47863
#      63238
#      78160
#      97950
#      112583
#      126073
#      140260
#      158479
#      167998
# 
# Disc length: 2530 seconds
# 
# Revision: 1 
# Processed by: cddbd v1.5.2PL0 Copyright (c) Steve Scherf et al.
# Submitted via: LOLA_Freedb v0.9beta0
# 
DISCID=8809e00c
DTITLE=The Cathedrals - Some Of Their Finest Moments
DYEAR=1993
DGENRE=
TTITLE0=The Cathedrals - I've Read The Back Of The Book
TTITLE1=The Cathedrals - Crimson River
TTITLE2=The Cathedrals - Climbing Higher And Higher
TTITLE3=The Cathedrals - In The Depths Of The Sea
TTITLE4=The Cathedrals - I Can See The Hand
TTITLE5=The Cathedrals - O, What A Savior
TTITLE6=The Cathedrals - I've Just Started Living
TTITLE7=The Cathedrals - Life Will Be Sweeter
TTITLE8=The Cathedrals - Don't It Make You Wanna Go Home
TTITLE9=The Cathedrals - Wedding Music
TTITLE10=Goin' In Style
TTITLE11=The Cathedrals - Daystar
EXTD=
EXTT0=
EXTT1=
EXTT2=
EXTT3=
EXTT4=
EXTT5=
EXTT6=
EXTT7=
EXTT8=
EXTT9=
EXTT10=
EXTT11=
PLAYORDER=
